<svg width="32" height="18" viewBox="0 0 32 18" fill="none" xmlns="http://www.w3.org/2000/svg">
<path d="M26.8275 8.08298L22.2542 3.55897C22.0675 3.37432 21.9779 3.15889 21.9854 2.91268C21.9929 2.66648 22.0903 2.45105 22.2775 2.2664C22.4642 2.09713 22.682 2.0085 22.9309 2.0005C23.1798 1.9925 23.3975 2.08113 23.5842 2.2664L29.7442 8.35996C29.8375 8.45229 29.9038 8.55231 29.943 8.66002C29.9822 8.76774 30.0012 8.88315 29.9999 9.00625C29.9987 9.12935 29.9791 9.24476 29.9411 9.35247C29.9032 9.46019 29.8372 9.56021 29.7433 9.65254L23.5833 15.7461C23.4122 15.9154 23.1981 16 22.9411 16C22.6842 16 22.4627 15.9154 22.2766 15.7461C22.0899 15.5614 21.9966 15.342 21.9966 15.0878C21.9966 14.8336 22.0899 14.6145 22.2766 14.4304L26.8275 9.92952L16.3975 9.92952C16.1331 9.92952 15.9113 9.84088 15.7321 9.66362C15.5529 9.48635 15.4636 9.26723 15.4642 9.00625C15.4648 8.74527 15.5544 8.52584 15.733 8.34796C15.9091 8.17252 16.127 8.0842 16.3867 8.08298H16.3975L26.8275 8.08298Z" fill="white"/>
<path d="M16.3975 9.92952C16.1331 9.92952 15.9113 9.84088 15.7321 9.66362C15.5529 9.48635 15.4636 9.26723 15.4642 9.00625C15.4648 8.74527 15.5544 8.52584 15.733 8.34796C15.9091 8.17252 16.127 8.0842 16.3867 8.08298L2 8.08298V9.92952L16.3975 9.92952Z" fill="white"/>
</svg>
