<svg width="80" height="80" viewBox="0 0 80 80" fill="none" xmlns="http://www.w3.org/2000/svg">
<path d="M39.5 33.5C42.6826 33.5 45.7348 32.2357 47.9853 29.9853C50.2357 27.7348 51.5 24.6826 51.5 21.5C51.5 18.3174 50.2357 15.2652 47.9853 13.0147C45.7348 10.7643 42.6826 9.5 39.5 9.5C36.3174 9.5 33.2652 10.7643 31.0147 13.0147C28.7643 15.2652 27.5 18.3174 27.5 21.5C27.5 24.6826 28.7643 27.7348 31.0147 29.9853C33.2652 32.2357 36.3174 33.5 39.5 33.5ZM20 42.5C21.9891 42.5 23.8968 41.7098 25.3033 40.3033C26.7098 38.8968 27.5 36.9891 27.5 35C27.5 33.0109 26.7098 31.1032 25.3033 29.6967C23.8968 28.2902 21.9891 27.5 20 27.5C18.0109 27.5 16.1032 28.2902 14.6967 29.6967C13.2902 31.1032 12.5 33.0109 12.5 35C12.5 36.9891 13.2902 38.8968 14.6967 40.3033C16.1032 41.7098 18.0109 42.5 20 42.5ZM66.5 35C66.5 36.9891 65.7098 38.8968 64.3033 40.3033C62.8968 41.7098 60.9891 42.5 59 42.5C57.0109 42.5 55.1032 41.7098 53.6967 40.3033C52.2902 38.8968 51.5 36.9891 51.5 35C51.5 33.0109 52.2902 31.1032 53.6967 29.6967C55.1032 28.2902 57.0109 27.5 59 27.5C60.9891 27.5 62.8968 28.2902 64.3033 29.6967C65.7098 31.1032 66.5 33.0109 66.5 35ZM39.5 36.5C43.4782 36.5 47.2936 38.0804 50.1066 40.8934C52.9196 43.7064 54.5 47.5218 54.5 51.5V54.5C54.5 62.7843 47.7843 69.5 39.5 69.5C31.2157 69.5 24.5 62.7843 24.5 54.5V51.5C24.5 47.5218 26.0804 43.7064 28.8934 40.8934C31.7064 38.0804 35.5218 36.5 39.5 36.5ZM18.5 51.5C18.5 49.6 18.7506 47.7602 19.2242 46.0102C19.2885 45.7726 19.0993 45.5398 18.854 45.56C16.2826 45.8423 13.906 47.0639 12.1798 48.9905C10.4536 50.9172 9.49933 53.4132 9.5 56V65C9.5 67.4853 11.5147 69.5 14 69.5C16.4853 69.5 18.5 67.4853 18.5 65V51.5ZM65 69.5C67.4853 69.5 69.5 67.4853 69.5 65V56C69.5003 53.3251 68.4798 50.7509 66.6466 48.8029C66.2177 48.3472 65.7519 47.9337 65.2557 47.5656C62.8875 45.8089 60.5 48.5513 60.5 51.5V65C60.5 67.4853 62.5147 69.5 65 69.5Z" fill="url(#paint0_linear_5493_5183)"/>
<defs>
<linearGradient id="paint0_linear_5493_5183" x1="39.5" y1="9.5" x2="39.5" y2="69.5" gradientUnits="userSpaceOnUse">
<stop stop-color="#2B3476"/>
<stop offset="1" stop-color="#F39500"/>
</linearGradient>
</defs>
</svg>
