<svg width="80" height="80" viewBox="0 0 80 80" fill="none" xmlns="http://www.w3.org/2000/svg">
<path d="M38 73.0001V13.1704C38 9.84185 36.0785 6.51764 32.75 6.5C30.2796 6.50251 27.8676 7.2519 25.8308 8.64979C21.9681 11.3007 18.3044 14.9657 15.655 18.8294C15.4849 19.0775 15.3235 19.3324 15.1713 19.5938C14.5864 20.5984 14.1517 21.6737 13.8736 22.7859C13.1414 25.7144 12.1359 28.7209 10.959 31.5005C10.812 31.8505 10.735 32.232 10.609 32.596C10.4613 32.9896 10.3375 33.3916 10.238 33.8C9.60597 36.9555 8.75919 40.2677 7.55 43.2501L7.4975 43.3761C7.15407 44.257 6.90078 45.1705 6.7415 46.1026C6.59225 46.8933 6.51145 47.6954 6.5 48.5001C6.51167 49.3424 6.59567 50.1777 6.752 51.0061C6.92015 52.0036 7.19593 52.98 7.5745 53.9181L7.648 54.0616C8.04406 54.9585 8.53324 55.8114 9.1075 56.6061C9.47617 57.1194 9.87517 57.6036 10.3045 58.0586C10.5588 58.3223 10.8213 58.5743 11.092 58.8146C11.442 59.1343 11.8095 59.4376 12.1945 59.7246C12.5795 60.0081 12.8945 60.2146 13.2725 60.4246L13.3255 60.4605C13.4215 60.5256 13.479 60.6341 13.479 60.7501C13.4828 63.7132 14.5587 66.5749 16.508 68.8066C16.7051 69.0323 16.9098 69.2499 17.1215 69.4593C20.7613 73.059 25.938 75.6817 31.0084 76.386C32.9622 76.6573 34.9418 76.4413 36.7752 75.7711C37.8029 75.3954 38.016 74.0942 38 73.0001ZM76.269 46.1201C76.1109 45.1882 75.8587 44.2747 75.5165 43.3936L75.457 43.2606C74.2468 40.2723 73.4111 36.9559 72.7515 33.8C72.6575 33.4051 72.5406 33.016 72.4015 32.6345C72.2825 32.2565 72.202 31.8645 72.0515 31.5005C70.8746 28.7207 69.8685 25.7143 69.1354 22.786C68.8567 21.6728 68.4211 20.5966 67.835 19.5914C67.6821 19.3291 67.5199 19.0733 67.3489 18.8244C64.6964 14.9634 61.0315 11.3005 57.1692 8.64979C55.1324 7.2519 52.7204 6.50251 50.25 6.5C46.9215 6.51764 45 9.84185 45 13.1704V73.0001C44.9743 74.0938 45.1827 75.3984 46.2103 75.7734C48.0419 76.4418 50.0191 76.657 51.9706 76.386C57.041 75.6817 62.2177 73.059 65.8575 69.4593C66.0692 69.2499 66.2739 69.0323 66.471 68.8066C68.4203 66.5749 69.4962 63.7132 69.5 60.7501C69.5 60.6428 69.5532 60.5425 69.6419 60.4823L69.7065 60.4386C70.0775 60.2146 70.4368 59.9813 70.7845 59.7386C71.306 59.3746 71.5335 59.1471 71.887 58.8286C72.1577 58.5859 72.4202 58.3339 72.6745 58.0726C73.2729 57.4381 73.8108 56.7491 74.281 56.0146C74.6847 55.3986 75.0347 54.7522 75.331 54.0756L75.4045 53.9321C75.7102 53.1854 75.9493 52.4166 76.122 51.6256C76.1663 51.4249 76.2072 51.2231 76.2445 51.0201C76.4055 50.1894 76.4907 49.3494 76.5 48.5001C76.491 47.7016 76.4137 46.9054 76.269 46.1201Z" fill="url(#paint0_linear_3502_523)"/>
<defs>
<linearGradient id="paint0_linear_3502_523" x1="41.5" y1="6.5" x2="41.5" y2="76.5" gradientUnits="userSpaceOnUse">
<stop stop-color="#FFF6ED"/>
<stop offset="1" stop-color="#FFAC5F"/>
</linearGradient>
</defs>
</svg>
