<svg width="60" height="57" viewBox="0 0 60 57" fill="none" xmlns="http://www.w3.org/2000/svg">
<g clip-path="url(#clip0_2422_2240)">
<path d="M32.855 -0.650391C34.7806 2.12738 36.5352 5.02006 38.1091 8.01154C38.3407 7.97873 38.5744 7.96214 38.8083 7.96189C39.7524 7.96209 40.6775 8.2284 41.4775 8.73033C42.2775 9.23226 42.9201 9.94952 43.3317 10.8C45.5698 10.5997 47.8145 10.4811 50.0613 10.4444C51.3555 10.4247 52.6555 10.4319 53.9613 10.4659C49.0135 4.0818 41.4474 -0.158586 32.855 -0.650391ZM28.7807 -0.596715C28.6821 -0.588664 28.5829 -0.583296 28.4844 -0.574574C26.222 4.05899 24.4523 8.63753 23.1874 13.1564C23.7299 13.4924 24.2035 13.9286 24.583 14.4419C27.6326 13.5189 30.7268 12.7508 33.8538 12.1405C34.0207 11.1705 34.4682 10.2708 35.1409 9.5527C33.333 6.12148 31.2194 2.73722 28.7807 -0.596715ZM24.4637 0.0889934C17.4745 1.75516 11.3602 5.97673 7.32182 11.9245C10.4158 12.6351 13.479 13.4741 16.5034 14.4392C16.9109 13.8896 17.426 13.4289 18.0174 13.0853C18.6088 12.7418 19.264 12.5226 19.9429 12.4411C21.0658 8.34634 22.5727 4.22538 24.4637 0.0889934ZM52.03 13.7884C49.2267 13.7703 46.4528 13.885 43.7058 14.1239C43.4615 15.1848 42.8801 16.1378 42.0487 16.8399C42.973 19.328 43.7601 21.8651 44.4063 24.4397C45.063 24.5095 45.6996 24.7081 46.2797 25.0243C46.8597 25.3404 47.3718 25.7678 47.7868 26.2821C51.6729 25.1176 55.6304 24.2066 59.6344 23.5547C59.0949 20.165 57.9512 16.9 56.2579 13.9152C54.8412 13.8405 53.4319 13.7987 52.03 13.7884ZM5.52263 14.9706C4.07187 17.7975 3.10115 20.8463 2.65023 23.9922C6.868 21.5687 11.1575 19.4539 15.5207 17.6598L15.5194 17.6396C12.2803 16.605 8.94336 15.7241 5.52263 14.9706ZM34.4102 15.4295C31.4273 16.0118 28.4757 16.744 25.5664 17.6235C25.5642 17.6806 25.5611 17.7376 25.557 17.7946C30.7527 19.9981 35.7434 22.6573 40.4707 25.7413C40.6903 25.5395 40.9275 25.3576 41.1793 25.1979C40.5657 22.767 39.8192 20.3716 38.943 18.0227L38.8083 18.0254C37.9104 18.0251 37.0291 17.7841 36.2558 17.3274C35.4824 16.8708 34.8454 16.2153 34.4109 15.4289M16.7676 20.7569C11.8794 22.7737 7.07647 25.214 2.35327 28.0547L2.35059 28.148C2.35059 35.774 5.29538 42.6928 10.1037 47.845C12.846 45.3895 15.7076 43.0708 18.678 40.8973C17.4178 34.6582 17.2348 28.2802 18.0606 21.8123C17.5738 21.5357 17.1365 21.1796 16.7669 20.7589M24.2217 20.8655C23.4494 21.6958 22.4195 22.2406 21.299 22.4114C20.5938 27.9769 20.6944 33.4458 21.6396 38.812C27.1082 35.0983 32.8423 31.9758 38.8485 29.4765V29.4449C38.849 29.2002 38.8674 28.9557 38.9035 28.7136C34.257 25.6582 29.3429 23.0314 24.2217 20.8655ZM59.9682 26.9C56.2302 27.519 52.5347 28.3724 48.9036 29.455C48.9021 30.1845 48.7423 30.905 48.435 31.5665C51.6264 34.1767 54.6425 36.9945 57.4638 40.0016C59.1402 36.2754 60.0047 32.2346 59.9997 28.148C59.9997 27.7293 59.9863 27.314 59.9682 26.9ZM39.98 32.6219C33.829 35.1923 27.9736 38.4477 22.391 42.3546C23.611 47.2781 25.553 52.1122 28.2424 56.8518C29.2068 56.9498 30.1844 56.9987 31.1751 56.9987C35.0845 56.9987 38.8083 56.2204 42.2042 54.8155C43.3391 47.8282 43.5623 41.0134 42.829 34.365C41.7087 34.1258 40.7035 33.5108 39.98 32.6219ZM46.1344 34.004C46.8249 40.2103 46.721 46.544 45.8596 52.9865C49.9317 50.5742 53.3496 47.1977 55.8128 43.1537C52.8137 39.8723 49.5789 36.8147 46.1344 34.0054M19.5153 44.442C17.1121 46.2544 14.7843 48.1649 12.5377 50.1685C15.87 53.001 19.805 55.0338 24.0421 56.1117C22.0853 52.29 20.5818 48.3959 19.5153 44.442Z" fill="#0f1c80"/>
</g>
<defs>
<clipPath id="clip0_2422_2240">
<rect width="62" height="62" fill="white" transform="translate(-2 -5.00098)"/>
</clipPath>
</defs>
</svg>
