<svg width="14" height="14" viewBox="0 0 14 14" fill="none" xmlns="http://www.w3.org/2000/svg">
<g clip-path="url(#clip0_1417_14067)">
<path fill-rule="evenodd" clip-rule="evenodd" d="M13.3441 3.95405C13.2104 4.00202 13.0658 4.01104 12.9272 3.98006C12.7886 3.94908 12.6616 3.87937 12.5611 3.77905L12.0091 3.22605L7.81209 7.42305C7.74244 7.49275 7.65974 7.54804 7.56872 7.58576C7.47769 7.62348 7.38012 7.64289 7.28159 7.64289C7.18306 7.64289 7.08549 7.62348 6.99447 7.58576C6.90344 7.54804 6.82074 7.49275 6.75109 7.42305L5.15009 5.82205L1.33609 9.63605C1.26687 9.70765 1.18409 9.76475 1.09257 9.80401C1.00104 9.84328 0.902621 9.86392 0.803036 9.86474C0.703452 9.86556 0.604701 9.84653 0.512547 9.80878C0.420393 9.77102 0.336681 9.7153 0.266295 9.64484C0.195909 9.57439 0.140259 9.49063 0.102592 9.39844C0.0649243 9.30625 0.0459945 9.20748 0.0469065 9.10789C0.0478184 9.00831 0.068554 8.90991 0.107903 8.81842C0.147253 8.72694 0.204428 8.64421 0.276092 8.57505L4.61809 4.23005C4.68774 4.16036 4.77044 4.10507 4.86147 4.06735C4.95249 4.02963 5.05006 4.01021 5.14859 4.01021C5.24712 4.01021 5.34469 4.02963 5.43572 4.06735C5.52674 4.10507 5.60944 4.16036 5.67909 4.23005L7.28109 5.83205L10.9481 2.16505L10.3961 1.61305C10.2956 1.51266 10.2256 1.38578 10.1944 1.24718C10.1632 1.10858 10.172 0.963972 10.2198 0.830178C10.2675 0.696383 10.3523 0.57891 10.4643 0.491433C10.5762 0.403956 10.7107 0.350072 10.8521 0.336055C11.7651 0.246055 12.2901 0.246055 13.1691 0.336055C13.3406 0.353792 13.5008 0.430106 13.6227 0.552144C13.7445 0.674181 13.8206 0.834485 13.8381 1.00605C13.9291 1.88405 13.9281 2.41005 13.8381 3.32205C13.824 3.46336 13.7701 3.59777 13.6827 3.70965C13.5952 3.82153 13.4778 3.90628 13.3441 3.95405ZM11.7211 5.46205C11.8344 5.35218 11.9795 5.28085 12.1357 5.25823C12.2919 5.23561 12.4513 5.26284 12.5911 5.33605L13.5631 5.84606C13.6889 5.91225 13.7932 6.01281 13.864 6.13603C13.9349 6.25926 13.9692 6.40006 13.9631 6.54205L13.6871 13.1301C13.6791 13.3235 13.5965 13.5064 13.4568 13.6405C13.317 13.7745 13.1307 13.8492 12.9371 13.8491H10.9651C10.8988 13.8491 10.8352 13.8227 10.7883 13.7758C10.7414 13.7289 10.7151 13.6654 10.7151 13.5991V6.54306C10.715 6.50949 10.7217 6.47625 10.7348 6.44532C10.7478 6.4144 10.767 6.38642 10.7911 6.36305L11.7211 5.46205ZM9.46509 13.5991C9.46509 13.6654 9.43875 13.7289 9.39187 13.7758C9.34498 13.8227 9.2814 13.8491 9.21509 13.8491H5.46509C5.39879 13.8491 5.3352 13.8227 5.28832 13.7758C5.24143 13.7289 5.21509 13.6654 5.21509 13.5991V7.78505C5.21509 7.76505 5.23009 7.74905 5.25009 7.75105C5.41309 7.75905 5.57309 7.82105 5.70509 7.93605L7.35009 9.38005C7.39726 9.42157 7.45834 9.4438 7.52116 9.44231C7.58398 9.44083 7.64393 9.41575 7.68909 9.37205L9.04109 8.06006C9.07639 8.02584 9.12099 8.00279 9.16931 7.99379C9.21763 7.98479 9.26754 7.99023 9.31279 8.00944C9.35803 8.02865 9.39661 8.06077 9.4237 8.10179C9.45079 8.14281 9.46519 8.1909 9.46509 8.24005V13.5991ZM3.53609 9.13605L0.426092 12.3121C0.28845 12.4522 0.211254 12.6407 0.211092 12.8371V13.0991C0.211092 13.5131 0.547092 13.8491 0.961092 13.8491H3.71509C3.7814 13.8491 3.84498 13.8227 3.89187 13.7758C3.93875 13.7289 3.96509 13.6654 3.96509 13.5991V9.31105C3.96519 9.2613 3.95043 9.21265 3.92272 9.17132C3.895 9.13 3.85559 9.09789 3.80952 9.0791C3.76345 9.0603 3.71282 9.05569 3.66411 9.06583C3.6154 9.07598 3.57083 9.10043 3.53609 9.13605Z" fill="url(#paint0_linear_1417_14067)"/>
</g>
<defs>
<linearGradient id="paint0_linear_1417_14067" x1="7.00533" y1="0.268555" x2="7.00533" y2="13.8491" gradientUnits="userSpaceOnUse">
<stop stop-color="white"/>
<stop offset="1" stop-color="#FFDBBA"/>
</linearGradient>
<clipPath id="clip0_1417_14067">
<rect width="14" height="14" fill="white"/>
</clipPath>
</defs>
</svg>
