<svg width="66" height="53" viewBox="0 0 66 53" fill="none" xmlns="http://www.w3.org/2000/svg">
<path d="M22 24.75H5.8025C6.31359 21.3464 7.52892 18.0869 9.37087 15.1795C11.2128 12.2722 13.6409 9.78097 16.5 7.865L21.4225 4.565L18.3975 0L13.475 3.3C9.33151 6.06121 5.9337 9.80254 3.58306 14.192C1.23243 18.5814 0.00166949 23.4833 0 28.4625V46.75C0 48.2087 0.579462 49.6076 1.61091 50.6391C2.64236 51.6705 4.04131 52.25 5.5 52.25H22C23.4587 52.25 24.8576 51.6705 25.8891 50.6391C26.9205 49.6076 27.5 48.2087 27.5 46.75V30.25C27.5 28.7913 26.9205 27.3924 25.8891 26.3609C24.8576 25.3295 23.4587 24.75 22 24.75Z" fill="#0f1c80"/>
<path d="M60.5 24.75H44.3025C44.8136 21.3464 46.0289 18.0869 47.8709 15.1795C49.7128 12.2722 52.1409 9.78097 55 7.865L59.9225 4.565L56.925 0L51.975 3.3C47.8315 6.06121 44.4337 9.80254 42.0831 14.192C39.7324 18.5814 38.5017 23.4833 38.5 28.4625V46.75C38.5 48.2087 39.0795 49.6076 40.1109 50.6391C41.1424 51.6705 42.5413 52.25 44 52.25H60.5C61.9587 52.25 63.3576 51.6705 64.3891 50.6391C65.4205 49.6076 66 48.2087 66 46.75V30.25C66 28.7913 65.4205 27.3924 64.3891 26.3609C63.3576 25.3295 61.9587 24.75 60.5 24.75Z" fill="#0f1c80"/>
</svg>
