<svg width="80" height="80" viewBox="0 0 80 80" fill="none" xmlns="http://www.w3.org/2000/svg">
<g clip-path="url(#clip0_5486_381)">
<path fill-rule="evenodd" clip-rule="evenodd" d="M24.7996 2.3418H36.521C45.2026 2.3418 59.0144 6.67091 63.6717 20.6428C65.8011 27.0349 64.9298 32.5479 64.0468 38.1507C63.9686 38.6196 63.8944 39.091 63.8241 39.5651C62.9762 45.0898 62.144 51.5913 63.3357 60.9489H67.7781C68.8143 60.9489 69.8081 61.3605 70.5408 62.0933C71.2736 62.826 71.6852 63.8198 71.6852 64.856V76.5774C71.6852 77.6137 71.2736 78.6075 70.5408 79.3402C69.8081 80.0729 68.8143 80.4846 67.7781 80.4846H20.8924C19.8562 80.4846 18.8624 80.0729 18.1297 79.3402C17.3969 78.6075 16.9853 77.6137 16.9853 76.5774V64.856C16.9853 63.8198 17.3969 62.826 18.1297 62.0933C18.8624 61.3605 19.8562 60.9489 20.8924 60.9489H25.2137C26.1202 56.4791 28.7301 50.3293 35.2316 43.9294C35.9427 43.2261 36.3647 42.4173 36.5405 41.6164C32.4114 44.1986 28.095 46.4685 23.6274 48.407C22.5592 48.8702 21.376 49.0002 20.2328 48.7799C19.0895 48.5596 18.0393 47.9993 17.2197 47.1723L11.4489 41.4015C10.4902 40.4436 9.89309 39.1832 9.75917 37.8347C9.62524 36.4862 9.96278 35.1329 10.7143 34.0053L24.1979 13.7819L21.3066 7.99933C21.0081 7.40366 20.8669 6.74155 20.8964 6.07592C20.9259 5.4103 21.1251 4.76328 21.4751 4.19635C21.8252 3.62942 22.3144 3.16142 22.8962 2.83682C23.4781 2.51223 24.1333 2.34182 24.7996 2.3418ZM32.6138 29.6918C33.6501 29.6918 34.6439 29.2801 35.3766 28.5474C36.1093 27.8147 36.521 26.8209 36.521 25.7846C36.521 24.7484 36.1093 23.7546 35.3766 23.0219C34.6439 22.2891 33.6501 21.8775 32.6138 21.8775C31.5776 21.8775 30.5838 22.2891 29.8511 23.0219C29.1183 23.7546 28.7067 24.7484 28.7067 25.7846C28.7067 26.8209 29.1183 27.8147 29.8511 28.5474C30.5838 29.2801 31.5776 29.6918 32.6138 29.6918Z" fill="url(#paint0_linear_5486_381)"/>
</g>
<defs>
<linearGradient id="paint0_linear_5486_381" x1="40.7078" y1="2.3418" x2="40.7078" y2="80.4846" gradientUnits="userSpaceOnUse">
<stop stop-color="#2A368D"/>
<stop offset="1" stop-color="#F39500"/>
</linearGradient>
<clipPath id="clip0_5486_381">
<rect width="80" height="80" fill="white"/>
</clipPath>
</defs>
</svg>
