<svg width="80" height="80" viewBox="0 0 80 80" fill="none" xmlns="http://www.w3.org/2000/svg">
<g clip-path="url(#clip0_3502_513)">
<path fill-rule="evenodd" clip-rule="evenodd" d="M24.7986 2.34277H36.52C45.2017 2.34277 59.0134 6.67188 63.6707 20.6438C65.8001 27.0359 64.9288 32.5489 64.0458 38.1517C63.9676 38.6206 63.8934 39.092 63.8231 39.5661C62.9752 45.0908 62.143 51.5923 63.3347 60.9499H67.7771C68.8133 60.9499 69.8071 61.3615 70.5399 62.0942C71.2726 62.827 71.6842 63.8208 71.6842 64.857V76.5784C71.6842 77.6147 71.2726 78.6085 70.5399 79.3412C69.8071 80.0739 68.8133 80.4856 67.7771 80.4856H20.8914C19.8552 80.4856 18.8614 80.0739 18.1287 79.3412C17.3959 78.6085 16.9843 77.6147 16.9843 76.5784V64.857C16.9843 63.8208 17.3959 62.827 18.1287 62.0942C18.8614 61.3615 19.8552 60.9499 20.8914 60.9499H25.2127C26.1192 56.4801 28.7292 50.3303 35.2306 43.9304C35.9417 43.2271 36.3637 42.4183 36.5395 41.6173C32.4105 44.1996 28.0941 46.4695 23.6264 48.4079C22.5582 48.8712 21.3751 49.0011 20.2318 48.7808C19.0885 48.5606 18.0383 48.0003 17.2187 47.1733L11.4479 41.4024C10.4892 40.4446 9.89212 39.1842 9.75819 37.8357C9.62427 36.4872 9.9618 35.1339 10.7133 34.0062L24.1969 13.7829L21.3056 8.00031C21.0071 7.40464 20.8659 6.74252 20.8954 6.0769C20.9249 5.41128 21.1241 4.76426 21.4742 4.19733C21.8242 3.6304 22.3134 3.16239 22.8952 2.8378C23.4771 2.5132 24.1323 2.3428 24.7986 2.34277ZM32.6129 29.6927C33.6491 29.6927 34.6429 29.2811 35.3756 28.5484C36.1083 27.8156 36.52 26.8218 36.52 25.7856C36.52 24.7494 36.1083 23.7556 35.3756 23.0228C34.6429 22.2901 33.6491 21.8785 32.6129 21.8785C31.5766 21.8785 30.5828 22.2901 29.8501 23.0228C29.1174 23.7556 28.7057 24.7494 28.7057 25.7856C28.7057 26.8218 29.1174 27.8156 29.8501 28.5484C30.5828 29.2811 31.5766 29.6927 32.6129 29.6927Z" fill="url(#paint0_linear_3502_513)"/>
</g>
<defs>
<linearGradient id="paint0_linear_3502_513" x1="40.7069" y1="2.34277" x2="40.7069" y2="80.4856" gradientUnits="userSpaceOnUse">
<stop stop-color="#FFF6ED"/>
<stop offset="1" stop-color="#FFAC5F"/>
</linearGradient>
<clipPath id="clip0_3502_513">
<rect width="80" height="80" fill="white"/>
</clipPath>
</defs>
</svg>
