<?xml version="1.0" encoding="utf-8"?>
<!-- Generator: Adobe Illustrator 24.3.0, SVG Export Plug-In . SVG Version: 6.00 Build 0)  -->
<svg version="1.1" id="Layer_1" xmlns="http://www.w3.org/2000/svg" xmlns:xlink="http://www.w3.org/1999/xlink" x="0px" y="0px"
	 viewBox="0 0 71 64" style="enable-background:new 0 0 71 64;" xml:space="preserve">
<style type="text/css">
	.st0{fill:#FFFFFF;}
	.st1{font-family:'Optima-Medium';}
	.st2{font-size:10.8575px;}
	.st3{font-family:'Poppins-Light';}
	.st4{font-size:1.8324px;}
</style>
<text transform="matrix(0.93 0 0 1 35.9209 38.1816)" class="st0 st1 st2">Mashar</text>
<text transform="matrix(1 0 0 1 36.2803 40.8447)" class="st0 st3 st4">COACHING · TRAINING · CONSULTANCY</text>
<g>
	<path class="st0" d="M37.26,41.89c-0.3-0.13-0.67-0.07-1.01-0.01c-5.93,1.16-12.02,1.52-18.05,1.05c-2.53-0.2-5.07-0.54-7.45-1.42
		c-1.17-0.43-2.32-1.01-3.11-1.98c-0.2-0.25-0.39-0.53-0.42-0.85c-0.05-0.49,0.27-0.96,0.68-1.22c0.41-0.26,0.91-0.35,1.4-0.41
		c4.1-0.48,8.13,1.03,12.09,2.2c4.34,1.28,8.86,2.18,13.38,1.96c-0.92-0.87-2.35-0.79-3.61-0.8c-3.98-0.03-7.8-1.42-11.58-2.64
		c-2.75-0.88-5.57-1.69-8.47-1.83c-1.85-0.09-5.97-0.04-5.46,2.92c0.16,0.93,0.88,1.66,1.64,2.21c1.57,1.13,3.45,1.75,5.34,2.17
		c3.08,0.68,6.25,0.85,9.41,0.85c5.19,0,10.43-0.47,15.36-2.09C37.36,41.94,37.31,41.91,37.26,41.89z"/>
	<path class="st0" d="M47.1,27.67c-0.03-0.09-0.06-0.19-0.09-0.28c-0.55-1.37-1.91-2.27-3.31-2.74c-1.4-0.47-2.89-0.58-4.34-0.9
		c0.82-0.46,1.65-0.93,2.28-1.62c0.63-0.69,1.05-1.65,0.86-2.57c-0.32-1.55-2.09-2.28-3.64-2.61c-8.07-1.69-16.66,0.71-24.6-1.5
		c-0.7-0.19-1.48-0.52-1.69-1.21c-0.28-0.96,0.74-1.78,1.65-2.19c2.12-0.96,4.44-1.43,6.75-1.69c4.57-0.53,9.22-0.31,13.72,0.65
		c0.9,0.19,1.89,0.48,2.37,1.27c0.65,1.09-0.35,2.73-1.62,2.65c1.16,0.14,2.53-0.67,2.48-1.85c-0.05-1.19-1.37-1.86-2.51-2.2
		c-4.12-1.26-8.47-1.76-12.78-1.52c-2.17,0.12-4.34,0.44-6.45,0.94c-1.54,0.37-3.95,0.78-4.86,2.26c-0.22,0.35-0.35,0.76-0.36,1.18
		c-0.02,1.15,0.93,2.24,2.07,2.39c-1.51,0.84-3.28,1.08-4.81,1.88c-1.52,0.81-2.81,2.59-2.16,4.18c0.43,1.06,1.56,1.65,2.59,2.14
		c-1.52,0.53-3.13,0.87-4.53,1.67s-2.6,2.22-2.55,3.84c0.04,1.28,0.86,2.44,1.91,3.18s2.3,1.12,3.55,1.44
		c8.68,2.23,17.81,2.04,26.71,1.03c0.35-0.04,0.71-0.09,1-0.29c0.28-0.21,0.44-0.63,0.25-0.92c-6.84,1.14-13.84,1.28-20.72,0.43
		c-2.79-0.35-5.57-0.86-8.17-1.92c-1.46-0.59-3.02-1.62-3.14-3.19c-0.08-1.16,0.69-2.22,1.63-2.91c1.46-1.06,3.32-1.44,5.12-1.44
		c1.8,0,3.59,0.35,5.37,0.6c5.84,0.84,11.83,0.71,17.63-0.39c1.89-0.36,3.77-0.82,5.69-0.92c1.92-0.1,3.92,0.2,5.54,1.25
		c0.95,0.62,1.78,1.6,1.76,2.73c-0.02,0.86-0.52,1.76-0.13,2.53C46.89,30.65,47.48,29,47.1,27.67z M34.96,24.14
		c-1.41,0.35-2.84,0.62-4.28,0.82c-1.37,0.19-2.75,0.33-4.13,0.42c-2.01,0.13-4.02,0.15-6.03,0.09c-0.37-0.01-0.73-0.06-1.1-0.06
		c-1.1-0.02-2.17-0.22-3.25-0.41c-1.07-0.19-2.13-0.43-3.2-0.65c-0.04-0.01-0.08-0.02-0.11-0.03c0-0.01,0-0.02,0.01-0.03
		c0.56-0.03,1.13-0.06,1.69-0.09c1.64-0.09,3.28-0.18,4.92-0.26c1.26-0.06,2.52-0.11,3.79-0.15c2.58-0.07,5.16,0.01,7.74,0.07
		c1.12,0.03,2.23,0.05,3.35,0.07c0.41,0.01,0.81,0,1.22,0c0,0.02,0,0.03,0,0.05C35.36,24.03,35.16,24.09,34.96,24.14z M37.5,23.35
		c-1.33,0.29-2.85,0.01-4.19-0.08c-2.8-0.18-5.59-0.4-8.4-0.37c-2.8,0.04-5.62,0.25-8.38,0.53c-1.58,0.16-3.29,0.52-4.88,0.4
		c-1.18-0.09-2.28-0.64-3.25-1.28c-0.45-0.3-0.79-0.67-0.94-1.2c-0.06-0.22-0.1-0.45-0.02-0.66c0.11-0.27,0.25-0.53,0.41-0.76
		C8.13,19.54,8.5,19.25,8.9,19c0.83-0.53,1.72-0.91,2.66-1.2c1.55-0.49,3.07-0.77,4.65-0.82c0.52-0.02,1.05-0.01,1.59,0.02
		c1.61,0.2,3.3,0.17,4.93,0.21c1.73,0.04,3.47,0.05,5.2,0.03c2.05-0.02,4.1-0.15,6.15-0.16c1.39-0.01,2.78-0.01,4.15,0.19
		c1.09,0.16,2.5,0.37,3.16,1.36c0.6,0.89,0.46,1.97-0.25,2.75C40.28,22.3,38.72,23.08,37.5,23.35z"/>
	<path class="st0" d="M23.8,49.08c-0.76-0.02-1.52-0.03-2.28-0.07c-0.63-0.04-1.26-0.1-1.89-0.17c-0.67-0.08-1.34-0.16-2-0.26
		c-1.58-0.25-3.11-0.67-4.52-1.45c-0.37-0.2-0.69-0.46-0.93-0.82c-0.33-0.49-0.39-1-0.14-1.55c0.04-0.08,0.07-0.15,0.18-0.14
		c0.11,0.01,0.14,0.1,0.14,0.19c0.06,0.74,0.46,1.24,1.08,1.58c0.86,0.46,1.77,0.78,2.71,1.01c1.31,0.32,2.63,0.54,3.97,0.68
		c1.69,0.18,3.38,0.2,5.07,0.14c0.86-0.03,1.71-0.08,2.57-0.13c2.43-0.16,4.82-0.54,7.12-1.34c0.91-0.32,1.8-0.7,2.56-1.3
		c0.24-0.19,0.48-0.4,0.67-0.64c0.33-0.4,0.42-0.87,0.31-1.38c-0.02-0.07-0.01-0.18,0.03-0.23c0.07-0.08,0.2-0.07,0.28,0
		c0.09,0.06,0.17,0.14,0.23,0.23c0.25,0.41,0.26,0.84,0.06,1.28c-0.24,0.52-0.62,0.94-1.05,1.31c-0.63,0.54-1.37,0.89-2.15,1.18
		c-1.58,0.58-3.2,1.01-4.85,1.31c-0.55,0.1-1.09,0.19-1.65,0.25c-0.41,0.05-0.82,0.06-1.23,0.09c-0.52,0.04-1.04,0.09-1.56,0.13
		c-0.89,0.08-1.78,0.13-2.67,0.1c-0.02,0-0.04,0-0.06,0C23.8,49.06,23.8,49.07,23.8,49.08z"/>
	<path class="st0" d="M26.89,30.55c-0.01,0.66-0.15,1.2-0.52,1.65c-0.4,0.48-0.92,0.71-1.52,0.83c-1.32,0.26-2.48-0.73-2.73-1.74
		c-0.22-0.88,0.05-1.63,0.7-2.24c0.87-0.82,2.29-0.9,3.22-0.22C26.63,29.28,26.88,29.9,26.89,30.55z"/>
</g>
</svg>
