<svg width="21" height="21" viewBox="0 0 21 21" fill="none" xmlns="http://www.w3.org/2000/svg">
<path fill-rule="evenodd" clip-rule="evenodd" d="M11.5065 11.6226L20.1129 17.7863L18.8093 19.6914L10.3702 13.6468L1.93108 19.6914L0.627441 17.7863L9.2338 11.6217V1.06445H11.5065V11.6226Z" fill="#f39300"/>
<path fill-rule="evenodd" clip-rule="evenodd" d="M10.5 0.5C9.65613 0.5 8.84682 0.843022 8.25012 1.45361C7.65341 2.06419 7.31818 2.89232 7.31818 3.75581C7.31818 4.61931 7.65341 5.44744 8.25012 6.05802C8.84682 6.66861 9.65613 7.01163 10.5 7.01163C11.3439 7.01163 12.1532 6.66861 12.7499 6.05802C13.3466 5.44744 13.6818 4.61931 13.6818 3.75581C13.6818 2.89232 13.3466 2.06419 12.7499 1.45361C12.1532 0.843022 11.3439 0.5 10.5 0.5ZM3.68182 13.9884C2.83795 13.9884 2.02864 14.3314 1.43193 14.942C0.835226 15.5526 0.5 16.3807 0.5 17.2442C0.5 18.1077 0.835226 18.9358 1.43193 19.5464C2.02864 20.157 2.83795 20.5 3.68182 20.5C4.52569 20.5 5.335 20.157 5.9317 19.5464C6.52841 18.9358 6.86364 18.1077 6.86364 17.2442C6.86364 16.3807 6.52841 15.5526 5.9317 14.942C5.335 14.3314 4.52569 13.9884 3.68182 13.9884ZM17.3182 13.9884C16.4743 13.9884 15.665 14.3314 15.0683 14.942C14.4716 15.5526 14.1364 16.3807 14.1364 17.2442C14.1364 18.1077 14.4716 18.9358 15.0683 19.5464C15.665 20.157 16.4743 20.5 17.3182 20.5C18.1621 20.5 18.9714 20.157 19.5681 19.5464C20.1648 18.9358 20.5 18.1077 20.5 17.2442C20.5 16.3807 20.1648 15.5526 19.5681 14.942C18.9714 14.3314 18.1621 13.9884 17.3182 13.9884Z" fill="#E2E2E5"/>
</svg>
