<svg width="80" height="80" viewBox="0 0 80 80" fill="none" xmlns="http://www.w3.org/2000/svg">
<path d="M38 73.0001V7.732C36.3652 6.93082 34.5705 6.50965 32.75 6.5C30.2796 6.50251 27.8676 7.2519 25.8308 8.64979C23.7939 10.0477 22.2273 12.0288 21.3365 14.333C18.7441 15.3363 16.5699 17.1915 15.1713 19.5938C13.7726 21.9961 13.2326 24.8027 13.64 27.5525C12.4962 28.6801 11.5852 30.0215 10.959 31.5005C10.812 31.8505 10.735 32.232 10.609 32.596C10.4613 32.9896 10.3375 33.3916 10.238 33.8C9.89783 35.4984 9.92169 37.2496 10.308 38.9381C9.13149 40.1937 8.19653 41.6554 7.55 43.2501L7.4975 43.3761C7.15407 44.257 6.90078 45.1705 6.7415 46.1026C6.59225 46.8933 6.51145 47.6954 6.5 48.5001C6.51167 49.3424 6.59567 50.1777 6.752 51.0061C6.92015 52.0036 7.19593 52.98 7.5745 53.9181L7.648 54.0616C8.04406 54.9585 8.53324 55.8114 9.1075 56.6061C9.47617 57.1194 9.87517 57.6036 10.3045 58.0586C10.5588 58.3223 10.8213 58.5743 11.092 58.8146C11.442 59.1343 11.8095 59.4376 12.1945 59.7246C12.5795 60.0081 12.8945 60.2146 13.2725 60.4246L13.479 60.5646V60.7501C13.4828 63.7132 14.5587 66.5749 16.508 68.8066C18.4573 71.0383 21.1483 72.4893 24.084 72.8916C25.9413 74.7913 28.3769 76.0204 31.0084 76.386C33.6399 76.7515 36.3183 76.2327 38.623 74.9111C38.2272 74.3516 38.01 73.6854 38 73.0001ZM76.269 46.1201C76.1109 45.1882 75.8587 44.2747 75.5165 43.3936L75.457 43.2606C74.8095 41.6617 73.8721 40.1962 72.692 38.9381C73.0858 37.2502 73.1061 35.4966 72.7515 33.8C72.6575 33.4051 72.5406 33.016 72.4015 32.6345C72.2825 32.2565 72.202 31.8645 72.0515 31.5005C71.4253 30.0215 70.5143 28.6801 69.3705 27.5525C69.7772 24.8015 69.2357 21.9939 67.835 19.5914C66.4343 17.1889 64.2579 15.3345 61.6635 14.333C60.7727 12.0288 59.2061 10.0477 57.1692 8.64979C55.1324 7.2519 52.7204 6.50251 50.25 6.5C48.4295 6.50965 46.6348 6.93082 45 7.732V73.0001C44.9838 73.6876 44.7593 74.354 44.356 74.9111C46.6607 76.2327 49.3391 76.7515 51.9706 76.386C54.6021 76.0204 57.0377 74.7913 58.895 72.8916C61.8307 72.4893 64.5217 71.0383 66.471 68.8066C68.4203 66.5749 69.4962 63.7132 69.5 60.7501V60.5786L69.7065 60.4386C70.0775 60.2146 70.4368 59.9813 70.7845 59.7386C71.306 59.3746 71.5335 59.1471 71.887 58.8286C72.1577 58.5859 72.4202 58.3339 72.6745 58.0726C73.2729 57.4381 73.8108 56.7491 74.281 56.0146C74.6847 55.3986 75.0347 54.7522 75.331 54.0756L75.4045 53.9321C75.7102 53.1854 75.9493 52.4166 76.122 51.6256C76.1663 51.4249 76.2072 51.2231 76.2445 51.0201C76.4055 50.1894 76.4907 49.3494 76.5 48.5001C76.491 47.7016 76.4137 46.9054 76.269 46.1201Z" fill="url(#paint0_linear_5493_6895)"/>
<defs>
<linearGradient id="paint0_linear_5493_6895" x1="41.5" y1="6.5" x2="41.5" y2="76.5" gradientUnits="userSpaceOnUse">
<stop stop-color="#2A368D"/>
<stop offset="1" stop-color="#F39500"/>
</linearGradient>
</defs>
</svg>
