<svg width="39" height="38" viewBox="0 0 39 38" fill="none" xmlns="http://www.w3.org/2000/svg">
<path d="M35.3332 12.9232V13.0388C35.3332 14.4004 35.3332 15.0828 35.0054 15.6402C34.6777 16.1975 34.0808 16.5284 32.8901 17.1918L31.6345 17.8885C32.499 14.9625 32.7888 11.818 32.8948 9.12952L32.9107 8.7796L32.9138 8.69727C33.9446 9.0551 34.5241 9.32268 34.8851 9.82302C35.3332 10.4453 35.3332 11.2718 35.3332 12.9232ZM3.6665 12.9232V13.0388C3.6665 14.4004 3.6665 15.0828 3.99425 15.6402C4.322 16.1975 4.91892 16.5284 6.10959 17.1918L7.36675 17.8885C6.50067 14.9625 6.21092 11.818 6.10484 9.12952L6.089 8.7796L6.08742 8.69727C5.05509 9.0551 4.47559 9.32268 4.11459 9.82302C3.6665 10.4453 3.6665 11.2733 3.6665 12.9232Z" fill="#EB8F03"/>
<path fill-rule="evenodd" clip-rule="evenodd" d="M19.5001 3.16637C22.3248 3.16637 24.6507 3.41496 26.4304 3.71579C28.2338 4.01979 29.1347 4.17179 29.8884 5.09962C30.642 6.02746 30.6009 7.02971 30.5217 9.03421C30.2494 15.9201 28.7642 24.5192 20.6876 25.2792V30.8747H22.9518C23.3177 30.8749 23.6722 31.0019 23.9551 31.2339C24.238 31.466 24.4317 31.7889 24.5035 32.1477L24.8043 33.6455H29.0001C29.3151 33.6455 29.6171 33.7706 29.8398 33.9933C30.0625 34.216 30.1876 34.5181 30.1876 34.833C30.1876 35.148 30.0625 35.45 29.8398 35.6727C29.6171 35.8954 29.3151 36.0205 29.0001 36.0205H10.0001C9.68517 36.0205 9.38313 35.8954 9.16043 35.6727C8.93773 35.45 8.81262 35.148 8.81262 34.833C8.81262 34.5181 8.93773 34.216 9.16043 33.9933C9.38313 33.7706 9.68517 33.6455 10.0001 33.6455H14.196L14.4968 32.1477C14.5685 31.7889 14.7623 31.466 15.0452 31.2339C15.328 31.0019 15.6826 30.8749 16.0485 30.8747H18.3126V25.2792C10.2376 24.5192 8.75245 15.9185 8.48012 9.03421C8.39937 7.02971 8.35979 6.02587 9.11345 5.09962C9.86554 4.17179 10.7665 4.01979 12.5699 3.71579C14.8607 3.34053 17.1788 3.15676 19.5001 3.16637ZM21.0075 9.81479L20.8523 9.53612C20.2506 8.45471 19.9498 7.91637 19.5001 7.91637C19.0505 7.91637 18.7496 8.45471 18.148 9.53612L17.9928 9.81479C17.8218 10.122 17.7363 10.274 17.6033 10.3753C17.4687 10.4766 17.3025 10.5146 16.97 10.589L16.6691 10.6587C15.5006 10.9231 14.9164 11.0545 14.777 11.501C14.6377 11.9475 15.0367 12.4146 15.8331 13.3456L16.039 13.5863C16.2654 13.8507 16.3794 13.9821 16.43 14.1468C16.4807 14.3115 16.4633 14.4872 16.43 14.8403L16.3984 15.1617C16.278 16.4046 16.2179 17.0269 16.5805 17.3024C16.9446 17.5779 17.4925 17.3261 18.5865 16.8226L18.8684 16.6928C19.1803 16.5503 19.3355 16.479 19.5001 16.479C19.6648 16.479 19.82 16.5503 20.1319 16.6928L20.4137 16.8226C21.5078 17.3277 22.0556 17.5779 22.4198 17.3024C22.784 17.0269 22.7222 16.4046 22.6019 15.1617L22.5702 14.8403C22.537 14.4872 22.5195 14.3115 22.5702 14.1468C22.6209 13.9821 22.7349 13.8507 22.9613 13.5863L23.1671 13.3456C23.9635 12.4146 24.3625 11.9491 24.2232 11.501C24.0839 11.0545 23.4996 10.9231 22.3311 10.6587L22.0303 10.589C21.6978 10.5146 21.5315 10.4782 21.397 10.3753C21.264 10.274 21.1785 10.122 21.0075 9.81479Z" fill="url(#paint0_linear_2729_4047)"/>
<defs>
<linearGradient id="paint0_linear_2729_4047" x1="19.5006" y1="3.16602" x2="19.5006" y2="36.0205" gradientUnits="userSpaceOnUse">
<stop stop-color="#f39300"/>
<stop offset="1" stop-color="#2B3476"/>
</linearGradient>
</defs>
</svg>
