<svg width="80" height="80" viewBox="0 0 80 80" fill="none" xmlns="http://www.w3.org/2000/svg">
<g clip-path="url(#clip0_5486_423)">
<path d="M79.4725 30.7203L71.4969 14.7634C71.2031 14.176 70.7964 13.6524 70.3002 13.2222C69.804 12.792 69.2279 12.4638 68.6048 12.2563C67.9817 12.0489 67.3238 11.9661 66.6688 12.0129C66.0137 12.0596 65.3743 12.235 64.787 12.5289C59.7779 15.0323 54.0279 15.6233 48.6143 14.1912L40.6413 12.082C40.2212 11.9727 39.7801 11.9727 39.3599 12.082L31.3869 14.1912C25.9734 15.6233 20.2233 15.0323 15.2143 12.5289C14.627 12.235 13.9875 12.0596 13.3325 12.0129C12.6774 11.9661 12.0196 12.0489 11.3965 12.2563C10.7734 12.4638 10.1973 12.792 9.70103 13.2222C9.2048 13.6524 8.79817 14.176 8.50435 14.7634L0.528714 30.7172C0.234803 31.3044 0.0594588 31.9439 0.012694 32.5989C-0.0340707 33.2539 0.0486604 33.9118 0.256163 34.5348C0.463665 35.1579 0.791874 35.734 1.22205 36.2302C1.65222 36.7264 2.17593 37.133 2.76327 37.4268C8.38013 40.2372 13.7687 43.4824 18.8799 47.1325L28.5435 54.0338C28.7991 54.2154 29.0863 54.3478 29.3904 54.4245L49.392 59.4247C49.8109 59.5297 50.2498 59.5245 50.6661 59.4095C51.0823 59.2945 51.4617 59.0736 51.7672 58.7684L64.2682 46.2679C67.3897 43.1465 70.994 40.5487 74.9424 38.5746L77.238 37.4268C78.4233 36.8335 79.3246 35.7937 79.7436 34.5361C80.1626 33.2785 80.0651 31.906 79.4725 30.7203ZM63.5057 39.9578C62.8299 40.6355 61.7522 40.6957 61.0052 40.0974L51.564 32.536C51.0823 32.1502 50.4748 31.9562 49.8586 31.9914C49.2424 32.0266 48.661 32.2885 48.2263 32.7266C47.4688 33.4896 46.6996 34.1356 45.9258 34.676C39.9605 38.8423 37.5215 30.2463 42.7409 25.1768L43.1873 24.7432C44.9998 22.9828 47.427 21.998 49.9536 21.998C53.6317 21.998 56.9942 24.076 58.6394 27.3656L63.855 37.7946C64.2157 38.5158 64.0751 39.3868 63.5057 39.9578ZM52.4399 51.0214C50.4502 53.0124 47.5616 53.813 44.8309 53.1303L34.4008 50.5229C32.199 49.9725 30.1205 49.0127 28.2737 47.6937L26.111 46.1491C20.1114 41.8642 18.121 33.8512 21.4182 27.257C23.3414 23.4108 26.8245 20.5764 30.9812 19.4751L39.6022 17.1909C39.8633 17.1217 40.1379 17.1216 40.3991 17.1906C41.5706 17.5002 41.9554 18.9702 41.0859 19.8141L28.9997 31.5453L28.9747 31.5735C28.4453 32.1028 28.0416 32.7443 27.7932 33.4506C27.5449 34.1569 27.4583 34.9099 27.5399 35.6541C27.6215 36.3983 27.8692 37.1147 28.2647 37.7504C28.6601 38.386 29.1933 38.9248 29.8248 39.3269C34.9389 42.5927 40.8943 42.8376 46.1911 40.2806C48.6412 39.0978 51.6288 38.9837 53.75 40.6874C56.4204 42.8324 56.638 46.8207 54.2168 49.2434L52.4399 51.0214ZM41.1945 65.1062C41.0594 65.6465 40.7477 66.1263 40.309 66.4694C39.8702 66.8125 39.3294 66.9992 38.7724 67C38.5669 67.0001 38.3623 66.9749 38.163 66.925L25.1276 63.6655C24.823 63.5903 24.5355 63.4577 24.2806 63.2748L16.0456 57.3933C15.5392 56.9958 15.2058 56.4183 15.1146 55.781C15.0234 55.1437 15.1816 54.4959 15.5561 53.9723C15.9307 53.4487 16.4928 53.0898 17.1254 52.9703C17.758 52.8508 18.4123 52.9798 18.9521 53.3307C24.1373 57.0351 29.9742 59.7292 36.1572 61.2718L39.3756 62.0748C40.0187 62.2357 40.5716 62.6454 40.9127 63.2139C41.2538 63.7823 41.3552 64.463 41.1945 65.1062Z" fill="url(#paint0_linear_5486_423)"/>
</g>
<defs>
<linearGradient id="paint0_linear_5486_423" x1="40" y1="12" x2="40" y2="67" gradientUnits="userSpaceOnUse">
<stop stop-color="#2B3476"/>
<stop offset="1" stop-color="#F39500"/>
</linearGradient>
<clipPath id="clip0_5486_423">
<rect width="80" height="80" fill="white"/>
</clipPath>
</defs>
</svg>
