<?xml version="1.0" encoding="utf-8"?>
<!-- Generator: Adobe Illustrator 27.5.0, SVG Export Plug-In . SVG Version: 6.00 Build 0)  -->
<svg version="1.1" id="Layer_1" xmlns="http://www.w3.org/2000/svg" xmlns:xlink="http://www.w3.org/1999/xlink" x="0px" y="0px"
	 viewBox="0 0 4000 4000" style="enable-background:new 0 0 4000 4000;" xml:space="preserve">
<g>
	<g>
		<rect x="0.5" y="0.5" style="fill:#FFFFFF;" width="3999" height="3999"/>
		<path d="M3999,1v3998H1V1H3999 M4000,0H0v4000h4000V0L4000,0z"/>
	</g>
</g>
<g>
	<g>
		<defs>
			<path id="SVGID_1_" d="M1615.14,1575.204c0,0-375.756,237.976-421.261,627.575
				C1320.761,2041.577,1632.672,1844.515,1615.14,1575.204"/>
		</defs>
		<clipPath id="SVGID_00000048482940694999578460000015223417746716524428_">
			<use xlink:href="#SVGID_1_"  style="overflow:visible;"/>
		</clipPath>
		
			<linearGradient id="SVGID_00000113312324873932802850000011178648145453893527_" gradientUnits="userSpaceOnUse" x1="1412.3976" y1="1891.5638" x2="1238.2957" y2="2401.6218">
			<stop  offset="0" style="stop-color:#004B80"/>
			<stop  offset="1" style="stop-color:#29C4FF"/>
		</linearGradient>
		
			<rect x="1193.879" y="1575.204" style="clip-path:url(#SVGID_00000048482940694999578460000015223417746716524428_);fill:url(#SVGID_00000113312324873932802850000011178648145453893527_);" width="438.793" height="627.575"/>
	</g>
	<g>
		<defs>
			<path id="SVGID_00000180353711304645444440000000497720502334569139_" d="M1486.949,1616.576
				c0,0-405.485,182.775-505.322,562.106C1129.916,2036.923,1466.438,1885.676,1486.949,1616.576"/>
		</defs>
		<clipPath id="SVGID_00000080199853942810285070000004158331465717641397_">
			<use xlink:href="#SVGID_00000180353711304645444440000000497720502334569139_"  style="overflow:visible;"/>
		</clipPath>
		
			<linearGradient id="SVGID_00000146461100113805422030000004155786157333200039_" gradientUnits="userSpaceOnUse" x1="1227.8173" y1="1933.1003" x2="1155.9313" y2="2327.1387">
			<stop  offset="0" style="stop-color:#005998"/>
			<stop  offset="1" style="stop-color:#29C4FF"/>
		</linearGradient>
		
			<rect x="981.628" y="1616.576" style="clip-path:url(#SVGID_00000080199853942810285070000004158331465717641397_);fill:url(#SVGID_00000146461100113805422030000004155786157333200039_);" width="505.322" height="562.106"/>
	</g>
	<g>
		<defs>
			<path id="SVGID_00000035529741906681418320000002901408582866837947_" d="M1356.544,1680.142c0,0-430.89,110.265-594.519,466.754
				C932.498,2032.772,1290.028,1941.697,1356.544,1680.142"/>
		</defs>
		<clipPath id="SVGID_00000055692019371649432970000017600251478285603207_">
			<use xlink:href="#SVGID_00000035529741906681418320000002901408582866837947_"  style="overflow:visible;"/>
		</clipPath>
		
			<linearGradient id="SVGID_00000176025461477062921590000014746670587772201097_" gradientUnits="userSpaceOnUse" x1="1079.4093" y1="1838.0233" x2="953.7172" y2="2309.5381">
			<stop  offset="0" style="stop-color:#005998"/>
			<stop  offset="1" style="stop-color:#29C4FF"/>
		</linearGradient>
		
			<rect x="762.025" y="1680.142" style="clip-path:url(#SVGID_00000055692019371649432970000017600251478285603207_);fill:url(#SVGID_00000176025461477062921590000014746670587772201097_);" width="594.519" height="466.754"/>
	</g>
	<g>
		<defs>
			<path id="SVGID_00000039822138690176243680000009176330278470839709_" d="M1272.702,1665.563c0,0-510.181,46.618-761.439,422.115
				C725.993,1989.058,1149.238,1950.85,1272.702,1665.563"/>
		</defs>
		<clipPath id="SVGID_00000088101735534823749470000006807305004157873294_">
			<use xlink:href="#SVGID_00000039822138690176243680000009176330278470839709_"  style="overflow:visible;"/>
		</clipPath>
		
			<linearGradient id="SVGID_00000061463018054462254850000001218643516550366099_" gradientUnits="userSpaceOnUse" x1="961.5693" y1="1718.5353" x2="707.9495" y2="2294.6958">
			<stop  offset="0" style="stop-color:#005998"/>
			<stop  offset="1" style="stop-color:#29C4FF"/>
		</linearGradient>
		
			<rect x="511.262" y="1665.563" style="clip-path:url(#SVGID_00000088101735534823749470000006807305004157873294_);fill:url(#SVGID_00000061463018054462254850000001218643516550366099_);" width="761.439" height="422.115"/>
	</g>
	<g>
		<defs>
			<path id="SVGID_00000008131606538820657650000012369759606937149348_" d="M1176.816,1639.713c0,0-569.486-41.61-914.128,325.548
				C516.762,1895.908,989.122,1930.942,1176.816,1639.713"/>
		</defs>
		<clipPath id="SVGID_00000138564863420160364980000010841799925204049826_">
			<use xlink:href="#SVGID_00000008131606538820657650000012369759606937149348_"  style="overflow:visible;"/>
		</clipPath>
		
			<linearGradient id="SVGID_00000039826949625871696920000013080212486566771619_" gradientUnits="userSpaceOnUse" x1="820.4465" y1="1675.6877" x2="514.82" y2="1997.4021">
			<stop  offset="0" style="stop-color:#0067AF"/>
			<stop  offset="1" style="stop-color:#29C4FF"/>
		</linearGradient>
		
			<rect x="262.689" y="1598.103" style="clip-path:url(#SVGID_00000138564863420160364980000010841799925204049826_);fill:url(#SVGID_00000039826949625871696920000013080212486566771619_);" width="914.128" height="367.159"/>
	</g>
	<g>
		<defs>
			<path id="SVGID_00000115498342665117336560000003416520281416401590_" d="M1162.704,1580.329
				c0,0-552.153-145.505-958.371,152.105C466.822,1710.927,924.71,1832.129,1162.704,1580.329"/>
		</defs>
		<clipPath id="SVGID_00000040559269661735497950000008844744271759961730_">
			<use xlink:href="#SVGID_00000115498342665117336560000003416520281416401590_"  style="overflow:visible;"/>
		</clipPath>
		
			<linearGradient id="SVGID_00000109021658578441860910000010845963978348004013_" gradientUnits="userSpaceOnUse" x1="864.98" y1="1498.7865" x2="448.0488" y2="1808.2531">
			<stop  offset="0" style="stop-color:#0067AF"/>
			<stop  offset="1" style="stop-color:#29C4FF"/>
		</linearGradient>
		
			<rect x="204.333" y="1434.823" style="clip-path:url(#SVGID_00000040559269661735497950000008844744271759961730_);fill:url(#SVGID_00000109021658578441860910000010845963978348004013_);" width="958.371" height="397.306"/>
	</g>
	<g>
		<defs>
			<path id="SVGID_00000163047882808894902090000017276217506496874923_" d="M1449.154,1951.025c0,0-329.997,269.29-230.581,762.951
				C1309.333,2466.738,1577.672,2272.781,1449.154,1951.025"/>
		</defs>
		<clipPath id="SVGID_00000045612944100276494830000016328203454851213491_">
			<use xlink:href="#SVGID_00000163047882808894902090000017276217506496874923_"  style="overflow:visible;"/>
		</clipPath>
		
			<linearGradient id="SVGID_00000098215652106079484580000005510294833154223025_" gradientUnits="userSpaceOnUse" x1="1339.7142" y1="2326.717" x2="1723.2545" y2="2581.6484">
			<stop  offset="0" style="stop-color:#005EA0"/>
			<stop  offset="1" style="stop-color:#29C4FF"/>
		</linearGradient>
		
			<rect x="1119.157" y="1951.025" style="clip-path:url(#SVGID_00000045612944100276494830000016328203454851213491_);fill:url(#SVGID_00000098215652106079484580000005510294833154223025_);" width="458.515" height="762.951"/>
	</g>
	<g>
		<defs>
			<path id="SVGID_00000080906621085093274600000000610198007492251037_" d="M1449.154,1951.025c0,0-226.196,360.902,26.3,796.599
				C1482.123,2484.338,1674.079,2214.563,1449.154,1951.025"/>
		</defs>
		<clipPath id="SVGID_00000156581296467714996940000002074370392708286141_">
			<use xlink:href="#SVGID_00000080906621085093274600000000610198007492251037_"  style="overflow:visible;"/>
		</clipPath>
		
			<linearGradient id="SVGID_00000116933383266687848870000013862849994765702305_" gradientUnits="userSpaceOnUse" x1="1331.9515" y1="2235.0806" x2="1805.022" y2="2698.7207">
			<stop  offset="0" style="stop-color:#0062A7"/>
			<stop  offset="1" style="stop-color:#29C4FF"/>
		</linearGradient>
		
			<rect x="1222.958" y="1951.025" style="clip-path:url(#SVGID_00000156581296467714996940000002074370392708286141_);fill:url(#SVGID_00000116933383266687848870000013862849994765702305_);" width="451.121" height="796.599"/>
	</g>
	<g>
		<defs>
			<path id="SVGID_00000018228381063213408230000011410245796920462517_" d="M1449.154,1951.025c0,0-98.494,414.383,280.401,746.08
				C1651.43,2445.591,1746.721,2128.502,1449.154,1951.025"/>
		</defs>
		<clipPath id="SVGID_00000031916585913944197690000005430057123039517358_">
			<use xlink:href="#SVGID_00000018228381063213408230000011410245796920462517_"  style="overflow:visible;"/>
		</clipPath>
		
			<linearGradient id="SVGID_00000137815171735063616910000008627178261834296470_" gradientUnits="userSpaceOnUse" x1="1332.3358" y1="2198.218" x2="1775.1248" y2="2455.7742">
			<stop  offset="0" style="stop-color:#0067AF"/>
			<stop  offset="1" style="stop-color:#29C4FF"/>
		</linearGradient>
		
			<rect x="1350.66" y="1951.025" style="clip-path:url(#SVGID_00000031916585913944197690000005430057123039517358_);fill:url(#SVGID_00000137815171735063616910000008627178261834296470_);" width="396.061" height="746.08"/>
	</g>
	<g>
		<defs>
			<path id="SVGID_00000114064417683611000020000004192842506544054402_" d="M1624.529,1523.086
				c-59.272,89.858-96.184,166.579-120.148,242.303c-19.382,61.245-30.294,121.838-37.714,188.201
				c-4.516,40.392-7.74,82.921-10.794,129.035c-2.513,37.957-4.91,78.343-7.819,121.966
				c331.274-29.906,512.242-419.763,539.514-621.168c0,0,39.369-134.15,169.144-125.401c0,0-34.996-48.119-129.774-43.744
				c0,0-123.943-195.392-357.245,43.744C1653.346,1480.525,1638.332,1502.162,1624.529,1523.086"/>
		</defs>
		<clipPath id="SVGID_00000056401838497049566470000001835664019566027698_">
			<use xlink:href="#SVGID_00000114064417683611000020000004192842506544054402_"  style="overflow:visible;"/>
		</clipPath>
		
			<linearGradient id="SVGID_00000047040024636855447470000010190044889019470224_" gradientUnits="userSpaceOnUse" x1="1798.8376" y1="1735.7007" x2="1881.6603" y2="1176.017">
			<stop  offset="0" style="stop-color:#0067AF"/>
			<stop  offset="1" style="stop-color:#29C4FF"/>
		</linearGradient>
		
			<rect x="1448.055" y="1218.886" style="clip-path:url(#SVGID_00000056401838497049566470000001835664019566027698_);fill:url(#SVGID_00000047040024636855447470000010190044889019470224_);" width="708.658" height="985.705"/>
	</g>
	<g>
		<defs>
			<path id="SVGID_00000000192128166871812130000008599202723005368248_" d="M1728.355,2069.601
				c9.013-56.819,53.637-428.596-103.826-546.515c-290.277-217.375-1033.978,27.627-1213.218-261.915
				c196.133,839.009,913.449-29.979,1036.743,943.42c0.966-0.086,1.929-0.178,2.892-0.27c30.716-2.976,60.134-9.048,88.249-17.776
				c27.352-8.491,53.471-19.497,78.354-32.61c39.606-20.873,79.947-43.28,109.428-77.008
				C1727.757,2076.035,1728.201,2073.404,1728.355,2069.601"/>
		</defs>
		<clipPath id="SVGID_00000107569987822291742210000002342569222293707191_">
			<use xlink:href="#SVGID_00000000192128166871812130000008599202723005368248_"  style="overflow:visible;"/>
		</clipPath>
		
			<linearGradient id="SVGID_00000160170839998622799270000006979040239215046049_" gradientUnits="userSpaceOnUse" x1="1731.0814" y1="2244.8486" x2="663.7203" y2="1358.2992">
			<stop  offset="0" style="stop-color:#0067AF"/>
			<stop  offset="1" style="stop-color:#29C4FF"/>
		</linearGradient>
		
			<rect x="411.312" y="1231.193" style="clip-path:url(#SVGID_00000107569987822291742210000002342569222293707191_);fill:url(#SVGID_00000160170839998622799270000006979040239215046049_);" width="1370.68" height="973.398"/>
	</g>
	<path style="fill:#231916;" d="M3654.307,2258.51h68.947v-187.942H3795v-57.048h-212.092v57.048h71.398V2258.51z
		 M3381.667,2013.521h-58.797v244.99h69.996v-78.396l-1.05-53.549l102.197,131.945h58.798v-244.99h-69.648v83.996
		c0.349,9.45,0.349,20.65,2.099,50.049L3381.667,2013.521z M3283.673,2200.063h-127.745v-37.098h115.846v-56.348h-115.846v-34.998
		h122.845v-58.098h-191.092v244.99h195.992V2200.063z M3037.982,2258.51v-244.99h-68.946v244.99H3037.982z M2767.793,2071.268h36.4
		c42.347,0,59.496,28.699,59.496,62.297c0,33.598-15.4,66.497-59.496,66.497h-36.4V2071.268z M2699.197,2013.521v244.99h104.996
		c87.846,0,128.094-56.698,128.094-124.245c0-67.548-41.649-120.745-128.094-120.745H2699.197z M2565.852,2160.165h-62.647
		l31.499-78.048L2565.852,2160.165z M2605.401,2258.51h74.197l-109.547-244.99h-69.996l-109.895,244.99h73.496l16.1-40.249h109.546
		L2605.401,2258.51z M2282.012,2068.819c18.201,0,26.949,15.05,26.949,30.449c0,14.699-8.049,28.347-26.248,28.347h-51.098v-58.796
		H2282.012z M2389.11,2254.311l-63.698-82.597c41.298-18.199,51.798-43.749,51.798-73.847c0-44.097-32.548-84.345-95.198-84.345
		h-119.693v244.99h69.296v-79.446h24.15l57.048,79.446h76.297V2254.311z M2114.371,2046.069
		c-32.198-32.548-62.297-39.549-96.245-39.549c-92.047,0-134.044,65.798-134.044,129.845c0,64.048,36.747,128.794,133.694,128.794
		c47.248,0,89.945-16.799,105.344-47.948v-108.845h-119.694v54.248h61.947v31.499c-14,10.149-34.3,12.6-47.248,12.6
		c-49.349,0-65.798-38.849-65.798-70.348c0-47.948,25.899-71.747,65.798-71.747c16.449,0,38.148,4.551,55.997,21.35
		L2114.371,2046.069z"/>
	<path style="fill:#231916;" d="M3189.177,2319.623h-17.528v73.035h20.867v-23.371l-0.314-15.964l30.467,39.335h17.529v-73.035
		h-20.763v25.041c0.103,2.816,0.103,6.156,0.625,14.92L3189.177,2319.623z M3066.776,2363.339h-18.675l9.39-23.266
		L3066.776,2363.339z M3078.566,2392.658h22.12l-32.657-73.035h-20.867l-32.762,73.035h21.91l4.801-11.999h32.657L3078.566,2392.658
		z M2945,2329.325c-9.599-9.702-18.573-11.79-28.692-11.79c-27.441,0-39.962,19.615-39.962,38.71
		c0,19.093,10.956,38.396,39.857,38.396c14.085,0,26.814-5.008,31.404-14.294v-32.449h-35.682v16.172h18.468v9.391
		c-4.174,3.026-10.225,3.756-14.085,3.756c-14.711,0-19.616-11.582-19.616-20.971c0-14.294,7.721-21.39,19.616-21.39
		c4.904,0,11.372,1.358,16.694,6.365L2945,2329.325z M2783.889,2356.141c0,12.102-7.825,20.658-19.928,20.658
		c-11.686,0-19.928-8.451-19.928-20.658c0-12.104,8.139-20.658,19.928-20.658C2776.064,2335.482,2783.889,2343.62,2783.889,2356.141
		z M2804.548,2356.141c0-24.311-16.588-38.292-40.586-38.292c-23.894,0-40.588,14.294-40.588,38.292
		c0,24.414,16.695,38.291,40.588,38.291C2787.96,2394.431,2804.548,2380.555,2804.548,2356.141z M2598.469,2319.623v73.035h55.611
		v-17.528h-34.953v-55.508H2598.469z M2519.053,2326.822c-7.824-6.156-16.38-8.661-27.336-8.661c-15.441,0-30.57,6.678-30.57,22.12
		c0,18.155,13.772,22.223,29.736,23.686c8.034,0.73,12.208,3.026,12.208,6.676c0,4.07-4.696,6.469-11.477,6.469
		c-6.156,0-14.19-1.251-21.39-8.242l-11.372,13.042c10.12,10.642,19.511,12.937,32.657,12.834c16.38-0.105,32.031-7.2,32.031-23.79
		c0-16.798-15.13-22.641-29.632-24.206c-7.2-0.73-12.104-1.461-12.104-6.469c0-3.86,4.904-5.426,9.912-5.426
		c6.365,0,12.104,1.253,17.112,5.008L2519.053,2326.822z M2315.062,2336.838h10.85c12.626,0,17.737,8.556,17.737,18.573
		c0,10.016-4.591,19.823-17.737,19.823h-10.85V2336.838z M2294.611,2319.623v73.035h31.301c26.188,0,38.187-16.902,38.187-37.04
		c0-20.136-12.415-35.996-38.187-35.996H2294.611z M2188.278,2336.108c5.425,0,8.033,4.486,8.033,9.077
		c0,4.383-2.4,8.451-7.824,8.451h-15.234v-17.528H2188.278z M2220.204,2391.406l-18.989-24.623
		c12.312-5.426,15.442-13.042,15.442-22.016c0-13.146-9.702-25.144-28.379-25.144h-35.683v73.035h20.658v-23.684h7.199
		l17.007,23.684h22.746V2391.406z M2072.657,2392.658v-73.035h-20.553v73.035H2072.657z M1909.879,2319.623v73.035h37.665
		c13.354-0.104,28.275-5.008,28.275-21.388c0-6.573-3.339-13.356-10.12-17.007c6.363-2.922,8.034-8.66,8.034-14.19
		c0-13.982-11.894-20.45-26.501-20.45H1909.879z M1930.224,2336.316h16.694c4.068,0,6.363,2.505,6.363,5.738
		c0,3.235-2.295,5.426-6.573,5.426h-16.485V2336.316z M1930.224,2362.714h17.425c5.111,0,7.721,3.026,7.721,6.991
		c0,4.069-2.505,6.886-7.721,6.886h-17.425V2362.714z"/>
</g>
</svg>
