<svg width="28" height="14" viewBox="0 0 28 14" fill="none" xmlns="http://www.w3.org/2000/svg">
<path d="M24.8275 6.08298L20.2542 1.55897C20.0675 1.37432 19.9779 1.15889 19.9854 0.912684C19.9929 0.666479 20.0903 0.451052 20.2775 0.266397C20.4642 0.0971327 20.682 0.00849819 20.9309 0.000496864C21.1798 -0.00750446 21.3975 0.0811291 21.5842 0.266397L27.7442 6.35996C27.8375 6.45229 27.9038 6.55231 27.943 6.66002C27.9822 6.76774 28.0012 6.88315 27.9999 7.00625C27.9987 7.12935 27.9791 7.24476 27.9411 7.35247C27.9032 7.46019 27.8372 7.56021 27.7433 7.65254L21.5833 13.7461C21.4122 13.9154 21.1981 14 20.9411 14C20.6842 14 20.4627 13.9154 20.2766 13.7461C20.0899 13.5614 19.9966 13.342 19.9966 13.0878C19.9966 12.8336 20.0899 12.6145 20.2766 12.4304L24.8275 7.92952L14.3975 7.92952C14.1331 7.92952 13.9113 7.84088 13.7321 7.66362C13.5529 7.48635 13.4636 7.26723 13.4642 7.00625C13.4648 6.74527 13.5544 6.52584 13.733 6.34796C13.9091 6.17252 14.127 6.0842 14.3867 6.08298H14.3975L24.8275 6.08298Z" fill="white"/>
<path d="M14.3975 7.92952C14.1331 7.92952 13.9113 7.84088 13.7321 7.66362C13.5529 7.48635 13.4636 7.26723 13.4642 7.00625C13.4648 6.74527 13.5544 6.52584 13.733 6.34796C13.9091 6.17252 14.127 6.0842 14.3867 6.08298L0 6.08298V7.92952L14.3975 7.92952Z" fill="white"/>
</svg>
