<?xml version="1.0" encoding="utf-8"?>
<!-- Generator: Adobe Illustrator 24.3.0, SVG Export Plug-In . SVG Version: 6.00 Build 0)  -->
<svg version="1.1" id="Layer_1" xmlns="http://www.w3.org/2000/svg" xmlns:xlink="http://www.w3.org/1999/xlink" x="0px" y="0px"
	 viewBox="0 0 64 71" style="enable-background:new 0 0 64 71;" xml:space="preserve">
<style type="text/css">
	.st0{fill:#FFFFFF;}
	.st1{font-family:'Optima-Medium';}
	.st2{font-size:18.4522px;}
	.st3{font-family:'Poppins-Light';}
	.st4{font-size:3.1142px;}
</style>
<text transform="matrix(0.93 0 0 1 2.6436 62.415)" class="st0 st1 st2">Mashar</text>
<text transform="matrix(1 0 0 1 3.2539 68.627)" class="st0 st3 st4">COACHING · TRAINING · CONSULTANCY</text>
<g>
	<path class="st0" d="M57.17,23.63c-0.02,0.12-0.04,0.24-0.07,0.36c-0.14,0.64-0.49,1.18-0.91,1.67c-0.75,0.87-1.66,1.53-2.67,2.07
		c-0.14,0.08-0.29,0.16-0.42,0.25c-0.14,0.11-0.15,0.21-0.03,0.35c0.07,0.08,0.15,0.14,0.24,0.2c0.14,0.1,0.27,0.2,0.42,0.28
		c0.76,0.46,1.18,1.16,1.42,1.98c0.33,1.16,0.02,2.18-0.72,3.09c-0.68,0.85-1.55,1.45-2.52,1.91c-1.45,0.7-2.98,1.15-4.56,1.42
		c-1.86,0.32-3.74,0.39-5.62,0.36c-1.24-0.02-2.48-0.07-3.72-0.2c-2.26-0.23-4.48-0.66-6.68-1.21c-2.06-0.51-4.07-1.17-6.1-1.77
		c-1.59-0.47-3.19-0.91-4.82-1.2c-1.21-0.22-2.42-0.4-3.65-0.4c-0.9,0-1.8,0.04-2.66,0.29c-0.36,0.11-0.7,0.29-1.03,0.49
		c-0.38,0.23-0.49,0.62-0.47,1.04c0.02,0.49,0.22,0.9,0.56,1.24c0.86,0.85,1.88,1.45,3,1.9c1.47,0.59,3,0.98,4.56,1.23
		c1.18,0.19,2.36,0.3,3.55,0.38c1.22,0.09,2.45,0.18,3.67,0.26c1.39,0.09,2.78,0.09,4.17,0.05c0.99-0.03,1.98-0.07,2.97-0.13
		c0.93-0.06,1.87-0.14,2.8-0.24c1.01-0.1,2.02-0.22,3.03-0.36c1.45-0.21,2.91-0.37,4.34-0.71c0.26-0.06,0.52-0.07,0.78,0
		c0.07,0.02,0.11,0.04,0.11,0.13c0,0.09-0.06,0.09-0.11,0.11c-1.66,0.5-3.34,0.97-5.05,1.26c-1.14,0.2-2.29,0.38-3.45,0.53
		c-3.12,0.4-6.26,0.51-9.4,0.45c-1.01-0.02-2.02-0.05-3.03-0.1c-2.94-0.14-5.84-0.53-8.66-1.42c-1.3-0.41-2.55-0.93-3.66-1.74
		c-0.54-0.39-1.07-0.81-1.45-1.37c-0.34-0.51-0.54-1.07-0.54-1.69c0.01-0.84,0.39-1.49,1.07-1.96c0.5-0.34,1.08-0.49,1.66-0.63
		c0.77-0.18,1.55-0.21,2.33-0.2c2.21,0.03,4.38,0.33,6.51,0.93c2.07,0.58,4.11,1.24,6.13,1.95c1.67,0.59,3.38,1,5.11,1.35
		c1.05,0.21,2.11,0.42,3.17,0.61c1.24,0.22,2.49,0.33,3.76,0.34c0.79,0,1.57,0.01,2.36,0.02c2.34,0.03,4.59-0.46,6.78-1.27
		c0.71-0.26,1.41-0.54,2.03-0.97c0.73-0.5,1.31-1.14,1.71-1.93c0.66-1.3,0.24-2.6-1.04-3.29c-0.85-0.45-1.7-0.45-2.59-0.12
		c-1.98,0.73-4.03,1.21-6.1,1.6c-1.09,0.2-2.19,0.39-3.29,0.56c-0.81,0.12-1.62,0.2-2.44,0.29c-0.8,0.08-1.6,0.15-2.4,0.21
		c-0.78,0.05-1.55,0.1-2.33,0.12C31.97,32,30.73,32.02,29.48,32c-1.04-0.01-2.08-0.07-3.12-0.12c-0.8-0.04-1.61-0.09-2.41-0.15
		c-0.91-0.06-1.81-0.14-2.72-0.21c-0.81-0.06-1.61-0.15-2.42-0.2c-2.48-0.16-4.87-0.7-7.21-1.52c-0.8-0.28-1.6-0.55-2.35-0.94
		c-0.85-0.44-1.58-1.03-2.19-1.77c-0.47-0.58-0.72-1.24-0.76-1.99c0-0.09-0.02-0.17-0.02-0.26c0-0.01,0-0.02,0-0.03
		c0.02-0.23,0.03-0.45,0.07-0.68c0.15-0.92,0.61-1.68,1.25-2.34c0.96-0.99,2.13-1.62,3.42-2.03c0.91-0.29,1.84-0.52,2.77-0.77
		c0.15-0.04,0.31-0.08,0.41-0.25c-0.27-0.14-0.53-0.29-0.79-0.43c-0.52-0.27-1-0.58-1.41-0.99c-1.11-1.09-1.21-2.65-0.32-3.91
		c0.56-0.79,1.39-1.35,2.25-1.81c0.9-0.48,1.86-0.86,2.85-1.14c0.33-0.09,2.27-0.35,2.22-0.88c-0.01-0.15-0.2-0.22-0.35-0.26
		c-0.5-0.14-0.94-0.45-1.33-0.77c-0.84-0.69-0.97-1.77-0.32-2.65c0.32-0.44,0.73-0.8,1.18-1.11c0.86-0.59,1.81-0.98,2.79-1.3
		c2.06-0.67,4.19-1.01,6.34-1.2c4.09-0.35,8.4-0.41,12.45,0.38C41.22,3,42.68,3.37,44.1,3.88c0.73,0.26,1.42,0.61,2.03,1.1
		c0.83,0.68,0.77,1.82,0.23,2.47c-0.59,0.7-1.54,1.01-2.42,1.06c0.02-0.26,0.22-0.29,0.41-0.34c0.48-0.13,0.94-0.3,1.32-0.64
		c0.6-0.54,0.69-1.25,0.24-1.92c-0.35-0.53-0.83-0.92-1.39-1.2c-0.5-0.25-1.03-0.41-1.56-0.55c-0.84-0.21-1.7-0.34-2.56-0.44
		c-1.01-0.11-2.01-0.24-3.02-0.31c-1-0.08-2.01-0.12-3.01-0.15c-2.2-0.07-4.4,0.01-6.59,0.26c-1.46,0.17-2.91,0.43-4.34,0.79
		c-1.26,0.31-2.47,0.75-3.58,1.42c-0.31,0.19-0.61,0.39-0.88,0.64c-0.35,0.32-0.53,0.75-0.49,1.24c0.05,0.55,0.37,0.93,0.79,1.24
		c0.33,0.25,0.73,0.35,1.13,0.46c1.45,0.4,2.94,0.55,4.44,0.68c0.9,0.08,1.79,0.13,2.69,0.19c0.96,0.06,1.92,0.13,2.89,0.17
		c1.82,0.08,3.65,0.05,5.47-0.02c1.3-0.05,2.61-0.12,3.91-0.18c1.65-0.07,3.3-0.02,4.94,0.18c1.14,0.14,2.27,0.34,3.38,0.63
		c0.98,0.26,1.91,0.65,2.72,1.28c1.28,1,1.46,2.7,0.43,3.94c-0.33,0.4-0.71,0.75-1.13,1.04c-0.5,0.35-1.02,0.69-1.59,0.92
		c-0.1,0.04-0.19,0.11-0.17,0.23c0.02,0.13,0.11,0.18,0.23,0.2c0.02,0,0.04,0,0.05,0.01c0.24,0.02,0.49,0.05,0.73,0.07
		c1.04,0.12,2.07,0.3,3.07,0.6c1.15,0.35,2.23,0.82,3.19,1.55c0.67,0.5,1.16,1.13,1.38,1.96c0.06,0.22,0.08,0.44,0.12,0.67
		C57.17,23.29,57.17,23.46,57.17,23.63z M30.34,30.91c0-0.01,0-0.01,0-0.02c0.3,0,0.59,0,0.89,0c1.2-0.02,2.39-0.02,3.59-0.07
		c0.97-0.04,1.94-0.12,2.91-0.21c0.85-0.08,1.7-0.16,2.55-0.28c1.22-0.18,2.44-0.38,3.66-0.59c1.82-0.32,3.6-0.77,5.36-1.34
		c1.46-0.48,2.86-1.12,4.15-1.96c0.69-0.45,1.29-1.01,1.71-1.73c0.45-0.78,0.48-1.57,0.1-2.39c-0.3-0.64-0.75-1.15-1.33-1.54
		c-0.85-0.58-1.8-0.97-2.78-1.27c-1.05-0.32-2.14-0.51-3.23-0.62c-0.79-0.08-1.58-0.05-2.35,0.17c-0.61,0.17-1.22,0.34-1.84,0.5
		c-1.62,0.42-3.27,0.75-4.93,0.94c-1.14,0.13-2.29,0.25-3.43,0.33c-1.42,0.1-2.84,0.19-4.26,0.23c-1.56,0.05-3.13,0.02-4.69-0.07
		c-0.82-0.05-1.63-0.1-2.45-0.17c-0.88-0.08-1.76-0.16-2.64-0.26c-0.83-0.1-1.66-0.22-2.48-0.34c-0.99-0.15-1.98-0.33-2.97-0.46
		c-0.7-0.09-1.42-0.07-2.12,0.05c-0.79,0.14-1.54,0.41-2.28,0.72c-1.03,0.43-1.96,1.02-2.75,1.81c-0.92,0.92-1.15,2.26-0.58,3.43
		c0.3,0.61,0.76,1.06,1.33,1.41c1.29,0.79,2.67,1.38,4.11,1.81c1.13,0.34,2.29,0.57,3.45,0.79c1.12,0.21,2.24,0.41,3.37,0.57
		c1.07,0.15,2.15,0.26,3.22,0.34c1.08,0.09,2.16,0.15,3.24,0.18C28,30.9,29.17,30.9,30.34,30.91z M22.56,10.58
		c-1.76,0.06-3.44,0.36-5.17,0.91c-1.04,0.33-2.04,0.75-2.96,1.34c-0.44,0.28-0.86,0.61-1.16,1.04c-0.18,0.26-0.34,0.55-0.46,0.85
		c-0.09,0.23-0.05,0.49,0.02,0.74c0.17,0.58,0.55,1,1.04,1.33c1.08,0.72,2.31,1.33,3.62,1.43c1.77,0.13,3.67-0.27,5.43-0.45
		c3.07-0.31,6.21-0.54,9.32-0.59c3.13-0.04,6.23,0.21,9.34,0.41c1.49,0.09,3.19,0.41,4.67,0.09c1.36-0.3,3.09-1.16,4.04-2.2
		c0.79-0.86,0.94-2.06,0.27-3.06c-0.74-1.1-2.3-1.33-3.51-1.51c-1.53-0.23-3.08-0.22-4.62-0.21c-2.28,0.01-4.56,0.15-6.84,0.17
		c-1.93,0.02-3.86,0.01-5.78-0.03c-1.81-0.04-3.69,0-5.48-0.23C23.73,10.57,23.14,10.56,22.56,10.58z M18.85,18.71
		c0,0.01-0.01,0.02-0.01,0.03c0.04,0.01,0.08,0.03,0.13,0.04c1.19,0.24,2.37,0.52,3.56,0.73c1.2,0.21,2.39,0.43,3.61,0.45
		c0.41,0.01,0.82,0.06,1.22,0.07c2.24,0.07,4.47,0.05,6.71-0.1c1.54-0.1,3.07-0.26,4.6-0.46c1.6-0.22,3.19-0.52,4.76-0.91
		c0.23-0.06,0.45-0.12,0.68-0.18c0-0.02,0-0.03-0.01-0.05c-0.45,0-0.9,0.01-1.36,0c-1.24-0.02-2.48-0.04-3.72-0.08
		c-2.87-0.07-5.74-0.16-8.61-0.08c-1.4,0.04-2.81,0.1-4.21,0.16c-1.83,0.09-3.65,0.19-5.48,0.28
		C20.11,18.64,19.48,18.68,18.85,18.71z"/>
	<path class="st0" d="M31.02,46.3c-0.84-0.02-1.69-0.03-2.53-0.08c-0.7-0.04-1.4-0.11-2.1-0.19c-0.74-0.08-1.49-0.18-2.23-0.29
		c-1.76-0.27-3.46-0.74-5.03-1.62c-0.41-0.23-0.77-0.51-1.04-0.91c-0.36-0.54-0.44-1.11-0.16-1.72c0.04-0.09,0.08-0.17,0.19-0.15
		c0.12,0.01,0.15,0.11,0.16,0.21c0.06,0.82,0.51,1.38,1.21,1.76c0.95,0.51,1.97,0.87,3.02,1.12c1.45,0.35,2.93,0.6,4.41,0.76
		c1.88,0.2,3.76,0.23,5.64,0.15c0.95-0.04,1.91-0.08,2.86-0.15c2.7-0.18,5.36-0.6,7.93-1.49c1.02-0.35,2-0.78,2.85-1.45
		c0.27-0.21,0.53-0.45,0.75-0.71c0.37-0.45,0.47-0.97,0.34-1.54c-0.02-0.08-0.01-0.21,0.04-0.26c0.08-0.09,0.22-0.07,0.31,0
		c0.1,0.07,0.19,0.16,0.25,0.26c0.27,0.46,0.29,0.94,0.07,1.42c-0.27,0.58-0.69,1.04-1.17,1.45c-0.7,0.6-1.53,0.99-2.39,1.31
		c-1.75,0.65-3.56,1.12-5.39,1.45c-0.61,0.11-1.22,0.21-1.83,0.28c-0.45,0.06-0.92,0.06-1.37,0.1c-0.58,0.05-1.16,0.1-1.74,0.15
		c-0.99,0.09-1.98,0.14-2.97,0.11c-0.02,0-0.05,0-0.07,0C31.02,46.28,31.02,46.29,31.02,46.3z"/>
	<path class="st0" d="M34.45,25.68c-0.01,0.74-0.16,1.33-0.58,1.84c-0.44,0.54-1.03,0.79-1.69,0.93c-1.47,0.29-2.76-0.82-3.04-1.93
		c-0.25-0.98,0.05-1.82,0.78-2.5c0.97-0.91,2.55-1.01,3.58-0.24C34.17,24.27,34.44,24.96,34.45,25.68z"/>
</g>
</svg>
